<svg xmlns="http://www.w3.org/2000/svg" width="377.492" height="68.584" viewBox="0 0 377.492 68.584">
  <g>
    <g>
      <path d="M96.933,28.912c3.532-.162,3.776-1.827,3.776-5.887V8.938c0-4.3-.366-5.684-3.776-5.846V1.873c3.288.082,6.982.117,10.717.117,3.41,0,6.578-.082,10.352-.2.69.731.813,2.314.731,4.181-.041.813-.2,3.776-.2,3.776h-1.257c-.69-4.344-2.354-6.089-9.865-6.089-.041.568-.116,3-.116,4.065V14.9h1.259c5.075,0,5.765-.893,6.373-3.289h1.1v9.059H114.8c-.406-2.76-1.177-3.816-6.252-3.816h-1.258V23.11c0,4.065.689,5.481,4.628,5.807v1.218c-3-.081-5.111-.116-7.674-.116-3.208,0-4.669.041-7.307.116Z" fill="#006741"/>
      <path d="M119.057,28.994c2.071-.163,2.882-.853,2.882-3.979V19.534c0-1.742-.116-4.019-.649-4.71l-1.949-.73-.116-1.015,7.549-2.439.893.813a51.376,51.376,0,0,0-.243,5.845v7.714c0,3.086.528,3.816,2.882,3.979v1.137c-1.827-.081-3.613-.116-5.4-.116s-4.02.041-5.847.116ZM120.843,5a3.351,3.351,0,1,1,3.448,3.25l-.08,0a3.252,3.252,0,0,1-3.366-3.134c0-.039,0-.079,0-.118Z" fill="#006741"/>
      <path d="M131.134,28.992c2.233-.2,2.639-1.948,2.639-4.343V19.817c0-1.786-.116-4.3-.649-4.994l-1.868-.73-.116-1.016,7.348-2.4.853.731a30.425,30.425,0,0,0-.365,4.262,14.009,14.009,0,0,1,2.029-3.288,4.519,4.519,0,0,1,2.273-1.626c2.72-.04,3.613,1.949,3.451,4.065l-1.056.975a6.869,6.869,0,0,0-3.288-.975,4.107,4.107,0,0,0-3.207,1.827v8c0,2.6.082,4.019,3.046,4.343V30.13c-2.153-.081-4.263-.116-6.049-.116s-3.207.041-5.034.116Z" fill="#006741"/>
      <path d="M146.97,20.915c0-6.415,4.02-10.231,8.647-10.231,4.831,0,6.7,4.1,6.7,8l-.771.893-9.216-.041c.285,5.318,2.555,7.755,5.481,7.836a10,10,0,0,0,4.384-.929l.366,1.178a48.089,48.089,0,0,1-6.171,3C150.871,30.861,146.97,27.776,146.97,20.915Zm9.988-2.8c.082-4.222-.929-5.969-2.07-5.969-1.909,0-2.68,2.8-2.6,6.212Z" fill="#006741"/>
      <path d="M166.538,28.75c-.893-1.137-.975-2.639-.813-4.507l.325-3.9h1.42c.853,6.171,3.817,8.444,7.145,8.444a4.664,4.664,0,0,0,4.99-4.312,4.606,4.606,0,0,0,0-.6c0-2.478-1.7-4.142-4.79-4.954-4.547-1.259-8.972-3.086-8.972-8.851,0-5.4,4.019-8.809,10.231-8.809a15.789,15.789,0,0,1,6.943,1.381c1.1,1.258.974,3.694.974,4.506v3.532h-1.5c-.649-4.344-2.842-7.549-6.048-7.549a4.311,4.311,0,0,0-4.489,4.126,4.226,4.226,0,0,0,.023.665c.081,2.8,1.949,4.065,4.669,4.831,5.886,1.664,8.891,4.065,8.891,8.933,0,5.562-4.065,9.059-10.84,9.059C170.963,30.739,167.715,29.724,166.538,28.75Z" fill="#ffaf26"/>
      <path d="M197.513,29.521a3.273,3.273,0,0,1-.69-1.584,5.688,5.688,0,0,1-4.952,2.555c-2.639,0-4.669-1.38-4.669-4.629a5.565,5.565,0,0,1,2.439-4.872,59.617,59.617,0,0,1,6.982-2.03c.041-3.289-.244-4.83-.813-5.562a3.475,3.475,0,0,0-2.8-.608l-.366.487.116,3.532-.929.731c-2.03.284-3.573-.731-3.573-2.273,0-1.742,2.112-2.679,3.939-3.451a12.662,12.662,0,0,1,4.75-1.054c2.842,0,5.11,1.461,5.11,6.211,0,2.03-.116,5.481-.081,7.433.041,2.112.61,3.085,1.949,3.166l1.015.041.2,1.015-5.807,1.908A3.4,3.4,0,0,1,197.513,29.521Zm-.929-3.491c0-1.056.04-3.41.04-5.807a15.337,15.337,0,0,0-2.761,1.218,4.663,4.663,0,0,0-1.38,3.654c0,1.908.813,2.76,1.948,2.76a2.232,2.232,0,0,0,2.148-1.828Z" fill="#ffaf26"/>
      <path d="M205.906,28.994c1.7-.163,2.72-1.3,2.72-4.1V13.806h-2.355l-.244-1.666a7.27,7.27,0,0,0,1.34-.447c.929-.486,1.1-1.056,1.742-3.654a12.2,12.2,0,0,1,3.252-5.724A7.436,7.436,0,0,1,217.72,0c2.232,0,4.425,1.5,4.3,3.776A2.966,2.966,0,0,1,220.4,6.13l-1.218.325c-.649-2.313-1.705-4.506-3.252-4.506-1.583,0-1.827,2.111-1.827,3.9v5.441l5.277-.2-.609,2.8L214.1,13.8V24.887c0,3.288,1.1,3.938,3.41,4.1v1.137c-3.086-.082-4.065-.116-5.886-.116-1.868,0-3.817.04-5.725.116Z" fill="#ffaf26"/>
      <path d="M218.7,20.915c0-6.415,4.019-10.231,8.647-10.231,4.832,0,6.7,4.1,6.7,8l-.771.893-9.216-.041c.285,5.318,2.556,7.755,5.481,7.836a10.01,10.01,0,0,0,4.385-.929l.364,1.178a48.012,48.012,0,0,1-6.17,3C222.6,30.861,218.7,27.776,218.7,20.915Zm9.988-2.8c.081-4.222-.929-5.969-2.071-5.969-1.908,0-2.68,2.8-2.6,6.212Z" fill="#ffaf26"/>
    </g>
    <g>
      <path d="M8.073,68.584H0L40.436,1.8l3.518,6.52Z" fill="#006741"/>
      <path d="M16.766,68.584l-6.991-.025L44.583,10.018,48.2,16.085Z" fill="#006741"/>
      <path d="M24.637,68.559l-5.354-.01C29.448,51.512,49.5,17.951,49.5,17.951l2.567,4.369L45.991,32.343s-.469-.765-1.851-2.74c0,0-1.235,7.9-3.592,12.236-1.574,2.9-3.018,4.786-4.8,7.712-.346-1.679,1.283-4.938,1.878-6.815a10.67,10.67,0,0,0-3.259,3.852,19.172,19.172,0,0,0-1.975,8.789Z" fill="#006741"/>
      <path d="M79.442,68.557H55.612c4.865-3.262,5.218-9.9,5.218-9.9a4.819,4.819,0,0,1-5.489,1.453C59.747,57.862,66.4,47.287,66.4,47.287S75.22,61.49,79.442,68.557Z" fill="#006741"/>
      <path d="M48.731,41.53A17.732,17.732,0,0,0,47.4,34.568C49.8,30.591,53.472,24.2,53.472,24.2l2.818,4.987Z" fill="#006741"/>
      <path d="M60.211,36.03,58.26,32.747,49.966,46.163s-3.16,4.543-1.774,7.9c1.827-2.713,4.542-6.518,5.728-11.455v3.6Z" fill="#006741"/>
      <path d="M57.2,53.133c.227-1.714.391-2.912.391-2.912s-1.7,4.031-4.864,5.2c2.787-4.58,9.752-15.652,9.752-15.652l1.7,2.962Z" fill="#006741"/>
      <path d="M33.254,68.559H28.442l5-8.295a9.007,9.007,0,0,0,.481,2.074,11.326,11.326,0,0,0,1.332,2.518Z" fill="#006741"/>
      <path d="M36.475,68.559h4.458a6.868,6.868,0,0,1-3.348-1.773Z" fill="#006741"/>
      <path d="M38.511,57.558c-1.481-2.468-.37-5.382.963-8.2,1.817-3.836,5.393-9.507,5.393-9.507l-.147,6.169a23.494,23.494,0,0,0-3.892,5.36A35.232,35.232,0,0,0,38.511,57.558Z" fill="#006741"/>
    </g>
    <path d="M376.449,68.421H96.923V37.14H376.449Zm-256.3-25.265H116.67V55.4a5.566,5.566,0,0,1-.221,1.5,4.222,4.222,0,0,1-.731,1.448,3.926,3.926,0,0,1-1.351,1.09,5.294,5.294,0,0,1-4.166,0,3.917,3.917,0,0,1-1.351-1.09,4.2,4.2,0,0,1-.731-1.448,5.527,5.527,0,0,1-.221-1.5V43.156h-3.475V55.514a8.186,8.186,0,0,0,.593,3.186,6.883,6.883,0,0,0,1.655,2.413,7.422,7.422,0,0,0,2.5,1.531,9.3,9.3,0,0,0,6.234,0,7.287,7.287,0,0,0,2.483-1.531,7.158,7.158,0,0,0,1.655-2.413,8.044,8.044,0,0,0,.606-3.186Zm7.034,19.529h3.475V47.708h.056l9.654,14.977h4.413V43.156H141.3V57.665h-.055l-9.462-14.509h-4.606Zm24.632,0h3.476V43.156h-3.476Zm15.916,0h3.006l7.889-19.529h-3.751l-5.489,14.758-5.324-14.758h-4Zm15.75,0H196.91V59.541h-9.958v-5.3h8.965V51.1h-8.965V46.3h9.462V43.156H183.477Zm19.612,0h3.475V54.41H209.1l4.524,8.275h4.192l-5.185-8.633a5.03,5.03,0,0,0,3.351-1.738,5.435,5.435,0,0,0,1.172-3.558,5.512,5.512,0,0,0-.606-2.731,4.7,4.7,0,0,0-1.628-1.71,6.957,6.957,0,0,0-2.331-.9,13.872,13.872,0,0,0-2.717-.262h-6.785Zm3.475-11.254v-5.3h3.007a11.724,11.724,0,0,1,1.365.083,4.3,4.3,0,0,1,1.283.345,2.24,2.24,0,0,1,.938.786,2.4,2.4,0,0,1,.358,1.379,2.543,2.543,0,0,1-.386,1.5,2.325,2.325,0,0,1-1.007.8,4.531,4.531,0,0,1-1.365.331c-.5.047-.993.069-1.49.069Zm28.77-6.758a6.945,6.945,0,0,0-2.607-1.544,9.641,9.641,0,0,0-2.993-.469,9.928,9.928,0,0,0-2.648.358,7.11,7.11,0,0,0-2.3,1.09,5.685,5.685,0,0,0-1.628,1.834,5.273,5.273,0,0,0-.62,2.621,4.938,4.938,0,0,0,.689,2.772,5.442,5.442,0,0,0,1.711,1.655,9.389,9.389,0,0,0,2.234.979q1.213.358,2.234.759a6.088,6.088,0,0,1,1.71.979,2.04,2.04,0,0,1,.69,1.655,2.251,2.251,0,0,1-.3,1.172,2.6,2.6,0,0,1-.8.842,3.761,3.761,0,0,1-1.1.5,4.6,4.6,0,0,1-1.213.165,4.69,4.69,0,0,1-2.193-.537,4.382,4.382,0,0,1-1.669-1.5L221.9,60.534a6.746,6.746,0,0,0,2.9,2.041,10.231,10.231,0,0,0,3.5.607,9.538,9.538,0,0,0,2.731-.386,6.731,6.731,0,0,0,2.275-1.159,5.575,5.575,0,0,0,1.559-1.944,6.132,6.132,0,0,0,.579-2.745,5,5,0,0,0-.69-2.786,5.517,5.517,0,0,0-1.71-1.682,9.113,9.113,0,0,0-2.234-.994q-1.214-.357-2.234-.744a6.779,6.779,0,0,1-1.711-.911,1.79,1.79,0,0,1-.689-1.517,2.22,2.22,0,0,1,1.007-1.93,3.162,3.162,0,0,1,1.02-.442,4.93,4.93,0,0,1,1.173-.138,5.138,5.138,0,0,1,1.944.373,3.208,3.208,0,0,1,1.476,1.172Zm6.4,18.012h3.476V43.156h-3.476Zm14.509,0h3.476V46.3H265.7V43.156H250.256V46.3h5.986Zm19.364,0h3.475V54.328l7.337-11.172h-4.137l-4.855,7.779-4.8-7.779h-4.359l7.338,11.172ZM318,45.749a8.6,8.6,0,0,0-3.158-2.386,9.521,9.521,0,0,0-3.683-.7,11.42,11.42,0,0,0-4.151.731,9.384,9.384,0,0,0-3.255,2.082,9.553,9.553,0,0,0-2.137,3.269A11.307,11.307,0,0,0,300.844,53a10.844,10.844,0,0,0,.773,4.166,9.3,9.3,0,0,0,5.392,5.282,11.42,11.42,0,0,0,4.151.731,10.069,10.069,0,0,0,4.055-.827,7.812,7.812,0,0,0,3.227-2.649l-2.868-2.041a6.285,6.285,0,0,1-2.083,1.807,5.043,5.043,0,0,1-2.3.565,6.624,6.624,0,0,1-2.745-.551,6.359,6.359,0,0,1-2.11-1.517,6.816,6.816,0,0,1-1.365-2.29,8.389,8.389,0,0,1-.483-2.9,7.612,7.612,0,0,1,.483-2.731,6.778,6.778,0,0,1,1.365-2.22,6.287,6.287,0,0,1,2.11-1.49,6.767,6.767,0,0,1,2.745-.538,5.64,5.64,0,0,1,2.028.386,5.839,5.839,0,0,1,2.082,1.545Zm5.462,16.936h3.475V43.156h-3.475Zm14.509,0h3.475V46.3h5.986V43.156H331.986V46.3h5.986Zm19.363,0h3.476V54.328l7.337-11.172h-4.137l-4.855,7.779-4.8-7.779H350l7.337,11.172Z" fill="#ffaf26"/>
    <g>
      <path d="M244.5,16.2c0-9.819,6.716-14.415,15.122-14.415a19.867,19.867,0,0,1,8.759,1.846c.982,1.257,1.06,3.142.982,4.792l-.157,3.535h-1.257c-.746-5.3-3.456-8.641-8.248-8.641-5.5,0-8.367,4.792-8.367,12.451,0,8.288,2.632,12.884,8.563,12.884,4.2,0,7.5-2.436,8.641-7.974h1.3l-.2,3.221a7.85,7.85,0,0,1-1.571,4.595,20.866,20.866,0,0,1-8.484,1.729C250.111,30.222,244.5,25.312,244.5,16.2Z" fill="#006741"/>
      <path d="M271.322,20.441c0-5.617,3.574-9.5,9.545-9.5,6.048,0,9.583,3.967,9.583,9.5,0,5.7-3.574,9.663-9.583,9.663C274.936,30.1,271.322,26.137,271.322,20.441Zm13.59,0c0-5.027-1.374-8.287-4.045-8.287s-3.967,3.26-3.967,8.287c0,5.106,1.3,8.445,3.967,8.445S284.912,25.547,284.912,20.441Z" fill="#006741"/>
      <path d="M306.594,29.043a4.29,4.29,0,0,1-.9-2,24.211,24.211,0,0,1-3.064,2.4,9.886,9.886,0,0,1-3.025.55c-3.613,0-5.538-1.964-5.538-6.874V19.184c0-3.888-.707-4.281-1.65-4.674l-1.139-.314-.078-.943,7.463-2.16.707.55a28.409,28.409,0,0,0-.314,5.617v5.931c0,2.317.746,4.163,3.967,3.849a8.294,8.294,0,0,0,2.592-1.139v-7.11c0-3.77-.55-4.084-1.61-4.438L302.745,14l-.118-.942,7.542-2.16.706.549a29.76,29.76,0,0,0-.314,5.46v6.953c0,2.317,1.139,3.142,2.553,3.3l1.061.118.157.9-5.813,1.885A3.205,3.205,0,0,1,306.594,29.043Z" fill="#006741"/>
      <path d="M314.45,28.69c2.357-.2,2.985-1.571,2.985-4.478V19.381c0-1.886-.157-3.849-.707-4.557l-2.2-.707-.118-.9,7.307-2.278.824.668a20.04,20.04,0,0,0-.2,2.474,27.163,27.163,0,0,1,3.063-2.474,8.959,8.959,0,0,1,2.75-.55c3.614,0,5.813,1.61,5.813,6.991v6.206c0,2.75.433,4.2,2.711,4.439v.982c-1.415-.079-3.182-.118-4.989-.118-1.689,0-3.3.039-5.067.118V28.69c2.239-.236,2.317-1.768,2.317-4.517v-5.3c0-3.5-.824-4.713-3.809-4.713a13.884,13.884,0,0,0-2.711.942v9.074c0,2.867.04,4.242,2.278,4.517v.982c-2.042-.079-3.338-.118-5.066-.118-1.807,0-3.5.039-5.185.118Z" fill="#006741"/>
      <path d="M337.741,20.834c0-5.813,4.086-9.9,9.388-9.9,2.985,0,6.049,1.06,6.049,3.731,0,1.454-1.178,2.318-2.868,2.632l-.863-.55c-.511-2.789-1.65-4.438-3.261-4.438-2.592,0-3.5,3.181-3.5,6.284,0,4.242,1.688,8.6,6.245,8.6a12.284,12.284,0,0,0,4.242-.825l.353,1.1a56.068,56.068,0,0,1-6.049,2.671C341.905,30.339,337.741,27.747,337.741,20.834Z" fill="#006741"/>
      <path d="M353.963,28.69c2.553-.2,3.339-.982,3.339-4.36V19.224c0-1.847-.157-3.732-.707-4.4l-2.2-.707-.118-.9,7.346-2.278.942.707a40.169,40.169,0,0,0-.275,5.185v7.5c0,3.339.393,4.124,3.339,4.36v.982c-2.042-.079-3.771-.118-5.617-.118-1.885,0-4.2.079-6.049.118ZM356.2,5.515a3.1,3.1,0,1,1,3.1,3.025A3.044,3.044,0,0,1,356.2,5.515Z" fill="#006741"/>
      <path d="M365.786,28.69c2.593-.2,3.339-.982,3.339-4.36V9.05c0-1.964-.2-3.809-.746-4.438l-2.4-.746L365.865,3l7.66-2.318.864.746a41.107,41.107,0,0,0-.276,5.735V24.33c0,3.378.472,4.124,3.379,4.36v.982c-2.161-.079-3.811-.118-5.657-.118-1.924,0-4.124.079-6.049.118Z" fill="#006741"/>
    </g>
  </g>
</svg>
